<?xml version="1.0" encoding="UTF-8" standalone="no"?>
<svg
   xmlns:dc="http://purl.org/dc/elements/1.1/"
   xmlns:cc="http://creativecommons.org/ns#"
   xmlns:rdf="http://www.w3.org/1999/02/22-rdf-syntax-ns#"
   xmlns:svg="http://www.w3.org/2000/svg"
   xmlns="http://www.w3.org/2000/svg"
   viewBox="0 0 652.10669 304.76001"
   height="304.76001"
   width="652.10669"
   xml:space="preserve"
   id="svg2"
   version="1.1"><metadata
     id="metadata8"><rdf:RDF><cc:Work
         rdf:about=""><dc:format>image/svg+xml</dc:format><dc:type
           rdf:resource="http://purl.org/dc/dcmitype/StillImage" /></cc:Work></rdf:RDF></metadata><defs
     id="defs6"><clipPath
       id="clipPath20"
       clipPathUnits="userSpaceOnUse"><path
         id="path18"
         d="M 0,2285.74 V 0 h 4890.78 v 2285.74 z" /></clipPath></defs><g
     transform="matrix(1.3333333,0,0,-1.3333333,0,304.76)"
     id="g10"><g
       transform="scale(0.1)"
       id="g12"><g
         id="g14"><g
           clip-path="url(#clipPath20)"
           id="g16"><path
             id="path22"
             style="fill:#231f20;fill-opacity:1;fill-rule:nonzero;stroke:none"
             d="m 1483.56,344.512 c 0,14.957 -10.26,24.34 -27.55,24.34 h -45.16 V 320.18 h 45.16 c 17.29,0 27.55,9.101 27.55,24.332 z m -72.71,101.129 v -44.262 h 27.27 c 16.42,0 25.22,9.09 25.22,22.281 0,13.481 -8.8,21.981 -25.22,21.981 z m 111.69,-102.59 c 0,-33.43 -26.09,-56.871 -63.6,-56.871 h -86.19 v 193.468 h 68.59 c 35.78,0 61.27,-21.976 61.27,-53.937 0,-14.359 -5.27,-26.09 -14.36,-34.871 21.4,-7.629 34.29,-24.34 34.29,-47.789" /><path
             id="path24"
             style="fill:#231f20;fill-opacity:1;fill-rule:nonzero;stroke:none"
             d="m 1705.51,366.199 c 0,-51.879 -35.16,-83.551 -82.05,-83.551 -47.23,0 -82.1,31.672 -82.1,83.551 v 113.449 h 39.58 V 363.27 c 0,-29.008 18.47,-43.969 42.52,-43.969 24.31,0 42.47,14.961 42.47,43.969 v 116.378 h 39.58 V 366.199" /><path
             id="path26"
             style="fill:#231f20;fill-opacity:1;fill-rule:nonzero;stroke:none"
             d="m 1748.36,286.18 h 39.582 v 193.469 h -39.582 z" /><path
             id="path28"
             style="fill:#231f20;fill-opacity:1;fill-rule:nonzero;stroke:none"
             d="m 1871.81,321.941 h 84.74 V 286.18 h -124.32 v 193.468 h 39.58 V 321.941" /><path
             id="path30"
             style="fill:#231f20;fill-opacity:1;fill-rule:nonzero;stroke:none"
             d="m 2025.46,443.891 v -121.95 h 23.45 c 38.98,0 65.09,24.329 65.09,61.571 0,38.097 -26.11,60.379 -65.09,60.379 z m 129.28,-60.379 c 0,-57.18 -43.39,-97.332 -105.53,-97.332 h -63.33 v 193.468 h 63.33 c 62.14,0 105.53,-38.109 105.53,-96.136" /><path
             id="path32"
             style="fill:#231f20;fill-opacity:1;fill-rule:nonzero;stroke:none"
             d="m 2182.36,286.18 h 39.5625 V 479.649 H 2182.36 Z" /><path
             id="path34"
             style="fill:#231f20;fill-opacity:1;fill-rule:nonzero;stroke:none"
             d="m 2430.95,479.648 v -197 h -13.18 L 2305.78,402.262 V 286.18 h -39.57 v 196.992 h 12.89 l 112.27,-118.723 v 115.199 h 39.58" /><path
             id="path36"
             style="fill:#231f20;fill-opacity:1;fill-rule:nonzero;stroke:none"
             d="m 2643.25,441.238 -28.13,-23.148 c -12.89,17.89 -30.2,28.43 -53.94,28.43 -37.54,0 -62.16,-26.668 -62.16,-63.598 0,-37.531 25.51,-64.801 64.49,-64.801 22.58,0 40.47,9.391 51.03,24.051 v 15.816 h -53.36 v 34.313 h 92.92 v -57.172 c -17,-30.488 -51.01,-52.481 -92.34,-52.481 -58.03,0 -103.48,43.403 -103.48,100.274 0,56.867 45.14,100.25 103.48,100.25 34.6,0 63.02,-15.543 81.49,-41.934" /><path
             id="path38"
             style="fill:#231f20;fill-opacity:1;fill-rule:nonzero;stroke:none"
             d="m 2830.37,409 -25.49,-65.078 h 50.98 z m 39.58,-97.609 h -79.14 l -10.84,-25.211 h -42.52 l 86.48,196.992 h 13.17 l 86.19,-196.992 h -42.51 l -10.83,25.211" /><path
             id="path40"
             style="fill:#231f20;fill-opacity:1;fill-rule:nonzero;stroke:none"
             d="m 3127.99,344.512 c 0,14.957 -10.27,24.34 -27.56,24.34 h -45.14 V 320.18 h 45.14 c 17.29,0 27.56,9.101 27.56,24.332 z m -72.7,101.129 v -44.262 h 27.27 c 16.4,0 25.21,9.09 25.21,22.281 0,13.481 -8.81,21.981 -25.21,21.981 z m 111.68,-102.59 c 0,-33.43 -26.07,-56.871 -63.61,-56.871 h -86.18 v 193.468 h 68.58 c 35.78,0 61.3,-21.976 61.3,-53.937 0,-14.359 -5.29,-26.09 -14.38,-34.871 21.4,-7.629 34.29,-24.34 34.29,-47.789" /><path
             id="path42"
             style="fill:#231f20;fill-opacity:1;fill-rule:nonzero;stroke:none"
             d="m 3329.44,443.891 h -90.58 v -39.282 h 66.54 v -33.711 h -66.54 v -48.957 h 94.1 V 286.18 h -133.68 v 193.468 h 130.16 v -35.757" /><path
             id="path44"
             style="fill:#231f20;fill-opacity:1;fill-rule:nonzero;stroke:none"
             d="m 3512.7,443.891 h -62.16 V 286.18 h -39.58 v 157.711 h -61.83 v 35.757 h 163.57 v -35.757" /><path
             id="path46"
             style="fill:#231f20;fill-opacity:1;fill-rule:nonzero;stroke:none"
             d="m 3690.11,443.891 h -62.16 V 286.18 h -39.56 v 157.711 h -61.85 v 35.757 h 163.57 v -35.757" /><path
             id="path48"
             style="fill:#231f20;fill-opacity:1;fill-rule:nonzero;stroke:none"
             d="m 3846.41,443.891 h -90.61 v -39.282 h 66.56 v -33.711 h -66.56 v -48.957 h 94.12 V 286.18 h -133.68 v 193.468 h 130.17 v -35.757" /><path
             id="path50"
             style="fill:#231f20;fill-opacity:1;fill-rule:nonzero;stroke:none"
             d="m 3917.96,389.359 h 33.14 c 18.47,0 29.31,11.153 29.31,27.852 0,16.121 -10.84,27.559 -29.31,27.559 h -33.14 z m 79.17,-103.179 -50.14,68.3 h -29.03 v -68.3 h -39.56 v 193.468 h 72.7 c 40.74,0 69.78,-24.628 69.78,-62.437 0,-24.91 -13.22,-44.551 -34.02,-54.82 l 54.82,-76.211 h -44.55" /><path
             id="path52"
             style="fill:#231f20;fill-opacity:1;fill-rule:nonzero;stroke:none"
             d="m 1402.36,100.262 c 0,-37.5315 26.09,-63.6136 62.13,-63.6136 35.48,0 62.16,26.0821 62.16,63.6136 0,37.226 -26.68,63.609 -62.16,63.609 -36.04,0 -62.13,-26.383 -62.13,-63.609 z m 165.03,0 C 1567.39,43.3984 1521.08,0 1464.21,0 c -56.87,0 -102.59,43.3984 -102.59,100.262 0,56.879 45.72,100.258 102.59,100.258 56.87,0 103.18,-43.379 103.18,-100.258" /><path
             id="path54"
             style="fill:#231f20;fill-opacity:1;fill-rule:nonzero;stroke:none"
             d="M 1759.76,197 V 0 h -13.18 L 1634.59,119.609 V 3.53125 h -39.58 V 200.52 h 12.91 L 1720.18,81.8008 V 197 h 39.58" /><path
             id="path56"
             style="fill:#231f20;fill-opacity:1;fill-rule:nonzero;stroke:none"
             d="m 1843.67,39.2812 h 84.72 V 3.53125 h -124.3 V 197 h 39.58 V 39.2812" /><path
             id="path58"
             style="fill:#231f20;fill-opacity:1;fill-rule:nonzero;stroke:none"
             d="m 1957.74,3.53125 h 39.582 v 193.469 h -39.582 z" /><path
             id="path60"
             style="fill:#231f20;fill-opacity:1;fill-rule:nonzero;stroke:none"
             d="M 2206.34,197 V 0 h -13.18 L 2081.17,119.609 V 3.53125 h -39.56 V 200.52 h 12.89 L 2166.78,81.8008 V 197 h 39.56" /><path
             id="path62"
             style="fill:#231f20;fill-opacity:1;fill-rule:nonzero;stroke:none"
             d="m 2374.99,161.238 h -90.61 v -39.289 h 66.56 V 88.2383 h -66.56 V 39.2812 h 94.12 V 3.53125 H 2244.82 V 197 h 130.17 v -35.762" /><path
             id="path64"
             style="fill:#231f20;fill-opacity:1;fill-rule:nonzero;stroke:none"
             d="m 2672.3,152.441 -29.9,-21.109 c -12.91,20.527 -31.08,32.539 -55.42,32.539 -36.05,0 -62.43,-26.383 -62.43,-63.9022 0,-37.2383 26.38,-63.3204 62.43,-63.3204 24.34,0 42.51,12.0235 55.42,32.543 l 29.9,-21.1133 C 2655.59,18.4805 2624.21,0 2586.69,0 c -57.45,0 -102.87,43.3984 -102.87,100.262 0,56.879 45.42,100.258 103.16,100.258 37.23,0 68.29,-18.469 85.32,-48.079" /><path
             id="path66"
             style="fill:#231f20;fill-opacity:1;fill-rule:nonzero;stroke:none"
             d="m 2771.74,126.352 -25.51,-65.0825 h 51.01 z m 39.56,-97.6137 h -79.14 L 2721.32,3.53125 H 2678.8 L 2765.28,200.52 h 13.18 l 86.2,-196.98875 h -42.51 L 2811.3,28.7383" /><path
             id="path68"
             style="fill:#231f20;fill-opacity:1;fill-rule:nonzero;stroke:none"
             d="M 3049.96,197 V 0 h -13.18 L 2924.8,119.609 V 3.53125 h -39.56 V 200.52 h 12.89 L 3010.4,81.8008 V 197 h 39.56" /><path
             id="path70"
             style="fill:#231f20;fill-opacity:1;fill-rule:nonzero;stroke:none"
             d="m 3162.92,126.352 -25.51,-65.0825 h 51 z m 39.56,-97.6137 h -79.14 L 3112.5,3.53125 h -42.52 L 3156.45,200.52 h 13.19 l 86.2,-196.98875 h -42.51 l -10.85,25.20705" /><path
             id="path72"
             style="fill:#231f20;fill-opacity:1;fill-rule:nonzero;stroke:none"
             d="M 3315.95,161.238 V 39.2812 h 23.47 c 38.98,0 65.07,24.3399 65.07,61.5588 0,38.121 -26.09,60.398 -65.07,60.398 z m 129.28,-60.398 c 0,-57.1603 -43.38,-97.30875 -105.52,-97.30875 h -63.32 V 197 h 63.32 c 62.14,0 105.52,-38.109 105.52,-96.16" /><path
             id="path74"
             style="fill:#231f20;fill-opacity:1;fill-rule:nonzero;stroke:none"
             d="m 3536.76,126.352 -25.49,-65.0825 h 50.99 z m 39.59,-97.6137 h -79.14 L 3486.34,3.53125 h -42.49 L 3530.32,200.52 h 13.18 L 3629.71,3.53125 h -42.52 l -10.84,25.20705" /><path
             id="path76"
             style="fill:#231f20;fill-opacity:1;fill-rule:nonzero;stroke:none"
             d="m 2509.76,2283.79 c -137.08,0 -269.67,-41.66 -381.92,-117.64 v 61.55 H 1857.88 V 947.621 h 0.04 v -1.789 h 271.28 v 649.048 c 0,219.14 98.09,305.98 103.7,310.8 l 0.62,0.5 4.72,3.95 c 74.98,66.03 171.41,102.41 271.52,102.41 67.64,0 132.09,-15.88 191.46,-47.2 l 126.55,239.94 c -97.42,51.4 -207.37,78.51 -318.01,78.51" /><path
             id="path78"
             style="fill:#231f20;fill-opacity:1;fill-rule:nonzero;stroke:none"
             d="m 1376.68,947.621 h 277.102 v 1280.08 H 1376.68 Z" /><path
             id="path80"
             style="fill:#231f20;fill-opacity:1;fill-rule:nonzero;stroke:none"
             d="m 0,1601.52 c 0,-376.19 306.066,-682.258 682.285,-682.258 205.754,0 398.445,91.458 528.675,250.968 l -210.09,171.58 c -78.499,-96.14 -194.636,-151.28 -318.585,-151.28 -226.656,0 -411.008,184.41 -411.008,410.99 0,226.63 184.352,411.02 411.008,411.02 100.11,0 196.5,-36.38 271.527,-102.41 l 179.228,203.59 C 1008.52,2223.42 848.418,2283.79 682.285,2283.79 306.066,2283.79 0,1977.74 0,1601.52" /><path
             id="path82"
             style="fill:#231f20;fill-opacity:1;fill-rule:nonzero;stroke:none"
             d="m 3772.04,1601.52 c 0,-275.58 -175.68,-413.38 -398.74,-413.38 -222.98,0 -414.35,185.07 -414.35,413.38 0,228.31 191.37,413.42 414.35,413.42 223.06,0 398.74,-138.24 398.74,-413.42 z m 252.56,1.62 v 374.97 c -160.76,121.65 -270.37,190.11 -270.37,190.11 -112.5,76.08 -245.7,117.52 -383.08,117.52 -377.25,0 -684.19,-306.91 -684.19,-684.19 0,-377.33 306.94,-684.179 684.19,-684.179 294.62,0 376.51,201.129 381.59,204.499 0,-21.55 0,-177.819 0,-177.819 h 271.98 v 650.789 c 0,2.87 -0.08,5.57 -0.12,8.3" /><path
             id="path84"
             style="fill:#d21c2d;fill-opacity:1;fill-rule:nonzero;stroke:none"
             d="m 4674.66,1327.58 c -6.78,39.31 -19.42,76.46 -36.94,110.87 -3.34,0.14 -6.32,0.48 -9.62,0.48 -60.53,0 -113.79,-18.64 -160.02,-55.31 8.64,0.67 17.31,1.14 26.2,1.14 67.09,0 129.19,-21.32 180.38,-57.18 z m 138.66,33.8 c -17.15,17.1 -35.45,31.1 -54.75,42.57 -0.33,-45.14 -10.66,-87.75 -28.59,-126.22 48.75,-55.38 78.63,-127.89 78.63,-207.3 0,-35.32 -6.16,-69.16 -16.94,-100.848 7.52,6.066 14.58,12.387 21.65,19.289 51.6,51.649 77.46,114.119 77.46,187.269 0,71.82 -25.86,133.65 -77.46,185.24 z m -138.29,-164.52 c -55.53,-58.55 -133.82,-95.44 -220.75,-95.44 -28.26,0 -55.57,4.03 -81.51,11.36 10.57,-47.35 33.3,-88.68 68.29,-123.909 21.32,-21.32 45.04,-37.93 70.65,-50.152 85.11,59.39 145.76,151.501 163.32,258.141 z M 4539.77,927.309 c 27.35,-9.129 56.72,-14.039 88.33,-14.039 24.79,0 48.25,3.16 70.57,9.039 30.24,41.691 48.33,92.711 48.33,148.121 0,52.51 -16.11,101.39 -43.63,141.92 -13.59,-116.14 -74.86,-217.76 -163.6,-285.041 z m 177.24,478.501 c 0,6.1 -0.41,12.08 -0.91,18.1 -15.41,5.43 -31.57,9.5 -48.22,11.96 16.74,-36.38 28.47,-75.47 34.21,-116.47 9.51,27.14 14.92,56.17 14.92,86.41 z m -49,-152.19 c -45.41,43.06 -106.43,69.58 -173.73,69.58 -33.68,0 -65.82,-6.65 -95.32,-18.7 -22.14,-38.15 -33.47,-80.25 -33.47,-126.48 0,-6.64 0.42,-12.98 0.79,-19.48 27.48,-9.78 57.14,-15.44 88,-15.44 88.13,0 166.09,43.71 213.73,110.52" /></g></g></g></g></svg>